<svg id="Capa_1" 
  width="24" height="24"
  viewBox="0 0 512 512" xmlns="http://www.w3.org/2000/svg"
>
  <g fill="#008C73">
  <path id="XMLID_416_" d="m495.781 486.308c-9.466 7.538-22.696 7.551-32.17.033l-.147-.117c-16.813-13.34-40.278-13.32-57.067.052-9.48 7.552-22.727 7.555-32.211.001-.016-.012-.031-.025-.047-.037-16.787-13.337-40.227-13.343-57.031-.008l-.172.137c-9.46 7.508-22.677 7.51-32.137.003l-.186-.147c-16.813-13.341-40.279-13.319-57.104.082-9.47 7.54-22.701 7.549-32.175.03l-.18-.142c-16.787-13.325-40.233-13.321-57.019.006l-.17.135c-9.479 7.527-22.714 7.517-32.22-.055-16.787-13.374-40.257-13.397-57.05-.068l-.195.154c-9.463 7.511-22.679 7.51-32.142-.001-4.328-3.435-10.616-2.709-14.05 1.616-3.434 4.326-2.71 10.616 1.616 14.049 8.395 6.663 18.455 9.993 28.513 9.993 10.05 0 20.097-3.326 28.475-9.975l.195-.153c9.479-7.522 22.71-7.513 32.214.059 16.794 13.377 40.267 13.395 57.082.043l.17-.135c9.463-7.513 22.682-7.515 32.143-.005l.18.142c16.81 13.343 40.278 13.326 57.109-.078 9.465-7.539 22.695-7.55 32.172-.031l.186.147c16.783 13.317 40.223 13.317 57.012-.007l.172-.137c9.479-7.523 22.71-7.511 32.174.027.017.013.032.025.048.038 16.817 13.362 40.284 13.348 57.088-.037 9.466-7.539 22.696-7.55 32.17-.033l.147.117c16.813 13.341 40.28 13.321 57.067-.053 4.32-3.441 5.032-9.732 1.592-14.052-3.441-4.322-9.732-5.035-14.052-1.593z"/><path id="XMLID_419_" d="m7.424 128.899 71.373 19.124c-8.812 4.104-16.987 9.738-24.07 16.821-23.278 23.278-31.002 58.304-19.678 89.234 1.174 3.206 3.902 5.591 7.235 6.327.716.158 1.438.235 2.155.235 2.623 0 5.176-1.033 7.071-2.929l33.069-33.069c-.02.781-.032 1.564-.032 2.349 0 34.766 20.389 66.69 51.941 81.331 1.34.622 2.776.929 4.208.929 1.879 0 3.749-.529 5.382-1.571 2.878-1.837 4.619-5.015 4.619-8.429v-101.403c32.74 43.54 51.164 96.481 52.418 151.058-13.085 3.988-25.712 9.453-37.602 16.33-24.15 13.968-44.837 33.458-60.278 56.655-16.75-12.975-39.915-12.875-56.539.321l-.195.154c-9.463 7.511-22.679 7.509-32.142-.001-4.328-3.435-10.616-2.709-14.05 1.616-3.434 4.326-2.71 10.616 1.616 14.049 8.395 6.663 18.455 9.993 28.513 9.993 10.05 0 20.097-3.326 28.475-9.975l.195-.153c9.479-7.522 22.71-7.513 32.214.059 16.794 13.377 40.267 13.395 57.082.043l.17-.135c9.463-7.513 22.682-7.515 32.143-.005l.18.142c16.81 13.343 40.278 13.326 57.109-.078 9.465-7.539 22.695-7.55 32.172-.031l.186.147c16.783 13.317 40.223 13.317 57.012-.007l.172-.137c9.479-7.523 22.71-7.511 32.174.027.017.013.032.025.048.038 16.817 13.361 40.284 13.348 57.088-.037 9.466-7.539 22.696-7.55 32.17-.033l.147.117c16.813 13.341 40.28 13.321 57.067-.053 4.32-3.441 5.032-9.732 1.592-14.052-3.441-4.32-9.732-5.033-14.053-1.591-9.466 7.538-22.696 7.551-32.17.033l-.147-.117c-16.671-13.227-39.88-13.312-56.638-.276-15.433-23.204-36.113-42.703-60.261-56.681-10.046-5.815-20.622-10.615-31.553-14.376v-17.496c0-14.726 1.007-29.587 2.993-44.171.746-5.473-3.086-10.513-8.559-11.258-5.48-.746-10.513 3.087-11.258 8.559-2.108 15.476-3.177 31.246-3.177 46.871v11.888c-9.517-2.094-19.215-3.426-29-3.966v-11.777c0-76.173 26.749-150.257 75.34-208.87h19.974v8.631c-15.357 21.14-28.328 44.022-38.565 68.07-2.163 5.082.203 10.955 5.284 13.118 1.278.544 2.605.801 3.912.801 3.889 0 7.587-2.282 9.206-6.085 5.81-13.649 12.558-26.897 20.163-39.631v89.737c0 3.414 1.741 6.592 4.619 8.429 1.633 1.042 3.503 1.571 5.382 1.571 1.432 0 2.868-.307 4.208-.929 31.553-14.64 51.941-46.564 51.941-81.33 0-.789-.022-1.575-.043-2.361l33.08 33.08c1.896 1.896 4.448 2.929 7.071 2.929.717 0 1.439-.077 2.155-.235 3.333-.736 6.062-3.121 7.235-6.327 11.324-30.93 3.601-65.956-19.678-89.233-7.083-7.083-15.258-12.717-24.07-16.821l71.373-19.124c3.298-.883 5.917-3.388 6.946-6.643 1.03-3.255.328-6.81-1.861-9.429-20.922-25.03-54.792-35.751-86.282-27.311-15.455 4.141-29.091 12.571-39.641 23.874-3.546-15.112-11.189-29.27-22.548-40.628-23.277-23.278-58.302-31-89.234-19.678-3.205 1.174-5.591 3.902-6.326 7.235-.736 3.334.279 6.813 2.693 9.227l33.43 33.43c-.605-.012-1.21-.024-1.817-.024-31.859 0-61.297 17.293-77.01 44.629-3.586-.447-7.219-.69-10.886-.69-.61 0-1.218.021-1.826.033l33.44-33.44c2.414-2.414 3.43-5.893 2.693-9.227-.735-3.333-3.121-6.062-6.326-7.235-30.932-11.324-65.957-3.6-89.234 19.678-11.359 11.358-19.002 25.517-22.548 40.629-10.55-11.303-24.186-19.733-39.641-23.875-31.49-8.441-65.36 2.279-86.281 27.31-2.189 2.619-2.892 6.174-1.861 9.429 1.029 3.255 3.648 5.76 6.946 6.643zm42.732 101.882c-1.696-18.902 4.953-38.036 18.713-51.795 12.351-12.351 29.028-18.973 45.985-18.973 1.936 0 3.873.086 5.81.26zm54.392-3.79c0-9.902 2.051-19.432 6.048-28.365l20.103-20.102v102.835c-16.254-13.051-26.151-33.021-26.151-54.368zm52.772-52.967-6.622-7.885v-1.53h27.498c41.652 49.673 65.464 112.083 67.635 176.717-7.691.432-15.327 1.356-22.865 2.752-2.403-62.22-25.49-122.238-65.646-170.054zm229.142 253.615c-4.365-.659-8.604-2.437-12.277-5.363-.016-.012-.031-.025-.047-.037-16.787-13.337-40.227-13.344-57.031-.008l-.172.137c-9.46 7.509-22.677 7.509-32.137.003l-.186-.147c-16.813-13.341-40.279-13.319-57.104.082-9.47 7.54-22.701 7.55-32.175.03l-.18-.142c-16.787-13.325-40.233-13.321-57.019.006l-.17.135c-3.72 2.954-8.02 4.729-12.444 5.36 30.247-41.984 78.069-66.675 130.489-66.675 52.408.001 100.207 24.667 130.453 66.619zm-133.698-166.132c-10.49-34.765-27.045-67.621-49.057-96.898h79.845c1.72 0 3.378-.444 4.837-1.25-16.732 30.728-28.756 63.839-35.625 98.148zm128.561-24.088v-108.733c16.253 13.05 26.15 33.02 26.15 54.367 0 21.346-9.897 41.316-26.15 54.366zm80.542-50.577-43.959-43.96c-5.084-10.108-12.053-19.223-20.55-26.802 16.891.049 33.492 6.662 45.796 18.968 13.761 13.759 20.409 32.892 18.713 51.794zm-33.289-125.947c5.442-1.458 10.976-2.166 16.468-2.166 13.162 0 26.08 4.065 36.874 11.602l-94.818 25.407c7.907-16.9 22.991-29.89 41.476-34.843zm-81.507-21.931c13.761 13.759 20.409 32.893 18.713 51.795l-70.508-70.508c18.9-1.697 38.035 4.953 51.795 18.713zm-47.111 36.048c9.609 0 18.87 1.957 27.566 5.773l19.885 19.885h-101.016c12.895-15.953 32.553-25.658 53.565-25.658zm15.914 45.658c-8.115 10.784-15.572 21.998-22.34 33.584-.046-1.314-.341-2.625-.911-3.854-5.376-11.587-13.109-21.649-22.462-29.73zm-50.246 23.939h-107.129c12.895-15.954 32.553-25.658 53.564-25.658s40.67 9.705 53.565 25.658zm-100.676-61.706c13.761-13.761 32.893-20.409 51.795-18.713l-44.008 44.008c-10.085 4.999-19.184 11.887-26.757 20.305.099-16.823 6.712-33.343 18.97-45.6zm-81.507 21.931c18.484 4.953 33.568 17.944 41.477 34.844l-94.819-25.407c15.298-10.682 34.858-14.391 53.342-9.437z"/><path id="XMLID_765_" d="m317.132 233.78c-2.63 0-5.21 1.07-7.07 2.93s-2.93 4.44-2.93 7.07c0 2.64 1.069 5.21 2.93 7.07 1.86 1.87 4.44 2.93 7.07 2.93 2.64 0 5.21-1.06 7.069-2.93 1.87-1.86 2.931-4.43 2.931-7.07 0-2.63-1.061-5.21-2.931-7.07-1.859-1.86-4.43-2.93-7.069-2.93z"/>
  </g>
</svg>